<svg xmlns="http://www.w3.org/2000/svg" xmlns:xlink="http://www.w3.org/1999/xlink" width="290" zoomAndPan="magnify" viewBox="0 0 217.5 74.999997" height="100" preserveAspectRatio="xMidYMid meet" version="1.0"><defs><g/><clipPath id="0fc4256cb3"><path d="M 2.65625 2.484375 L 72.066406 2.484375 L 72.066406 74.066406 L 2.65625 74.066406 Z M 2.65625 2.484375 " clip-rule="nonzero"/></clipPath></defs><g clip-path="url(#0fc4256cb3)"><path fill="#0d6efd" d="M 24.628906 20.847656 L 48.25 20.847656 C 47.675781 21.269531 47.15625 21.757812 46.699219 22.308594 C 46.238281 22.855469 45.84375 23.453125 45.523438 24.097656 C 45.203125 24.746094 44.957031 25.417969 44.792969 26.125 C 44.628906 26.828125 44.546875 27.542969 44.546875 28.269531 L 44.546875 74.066406 C 44.015625 74.066406 43.484375 74.039062 42.957031 73.984375 C 42.429688 73.933594 41.90625 73.851562 41.382812 73.746094 C 40.863281 73.640625 40.347656 73.507812 39.839844 73.347656 C 39.332031 73.191406 38.835938 73.007812 38.34375 72.800781 C 37.851562 72.589844 37.375 72.359375 36.90625 72.101562 C 36.4375 71.84375 35.984375 71.5625 35.542969 71.261719 C 35.101562 70.957031 34.675781 70.636719 34.265625 70.289062 C 33.851562 69.945312 33.460938 69.578125 33.085938 69.191406 C 32.710938 68.808594 32.355469 68.40625 32.015625 67.984375 C 31.679688 67.5625 31.363281 67.125 31.070312 66.671875 C 30.773438 66.21875 30.503906 65.753906 30.25 65.273438 C 30 64.792969 29.773438 64.300781 29.570312 63.796875 C 29.367188 63.292969 29.191406 62.78125 29.035156 62.261719 C 28.882812 61.738281 28.753906 61.210938 28.648438 60.679688 C 28.546875 60.144531 28.46875 59.605469 28.417969 59.0625 C 28.363281 58.523438 28.339844 57.980469 28.339844 57.433594 L 28.339844 28.265625 C 28.339844 27.539062 28.253906 26.824219 28.089844 26.121094 C 27.925781 25.417969 27.679688 24.742188 27.355469 24.097656 C 27.035156 23.453125 26.644531 22.855469 26.183594 22.304688 C 25.722656 21.757812 25.203125 21.269531 24.628906 20.847656 Z M 64.089844 8.875 C 59.542969 4.488281 53.851562 2.484375 49.238281 2.484375 L 2.691406 2.484375 C 2.6875 4.691406 3.097656 6.816406 3.921875 8.851562 C 4.746094 10.890625 5.917969 12.6875 7.441406 14.246094 C 8.859375 15.707031 10.488281 16.855469 12.328125 17.691406 C 14.167969 18.527344 16.089844 18.996094 18.097656 19.097656 L 53.804688 19.097656 L 53.804688 19.121094 C 55.628906 19.152344 57.417969 19.410156 59.179688 19.898438 C 60.9375 20.382812 62.613281 21.082031 64.203125 21.992188 C 65.792969 22.90625 67.25 24.003906 68.574219 25.285156 C 69.898438 26.570312 71.050781 28 72.03125 29.574219 C 72.03125 20.03125 68.636719 13.257812 64.089844 8.875 Z M 64.089844 8.875 " fill-opacity="1" fill-rule="nonzero"/></g><g fill="#0d6efd" fill-opacity="1"><g transform="translate(83.480439, 45.86344)"><g><path d="M 31.9375 -35.265625 L 30.5 -26.625 L 20.171875 -26.625 L 20.171875 0 L 10.234375 0 L 10.234375 -26.625 L -0.796875 -26.625 L -0.796875 -35.265625 Z M 31.9375 -35.265625 "/></g></g></g><g fill="#0d6efd" fill-opacity="1"><g transform="translate(113.830385, 45.86344)"><g><path d="M 28.703125 -26.765625 L 12.765625 -26.765625 L 12.765625 -21.953125 L 27.421875 -21.953125 L 27.421875 -13.46875 L 12.765625 -13.46875 L 12.765625 -8.5 L 29.109375 -8.5 L 28.515625 0 L 2.984375 0 L 2.984375 -35.265625 L 28.703125 -35.265625 Z M 28.703125 -26.765625 "/></g></g></g><g fill="#0d6efd" fill-opacity="1"><g transform="translate(143.38557, 45.86344)"><g><path d="M 10.1875 0 L -0.546875 0 L 10.78125 -17.734375 L -0.046875 -35.265625 L 11.03125 -35.265625 L 16.4375 -26.03125 L 21.8125 -35.265625 L 32.34375 -35.265625 L 21.515625 -18.328125 L 32.734375 0 L 21.453125 0 L 16 -9.640625 Z M 10.1875 0 "/></g></g></g><g fill="#0d6efd" fill-opacity="1"><g transform="translate(176.020453, 45.86344)"><g><path d="M 31.9375 -35.265625 L 30.5 -26.625 L 20.171875 -26.625 L 20.171875 0 L 10.234375 0 L 10.234375 -26.625 L -0.796875 -26.625 L -0.796875 -35.265625 Z M 31.9375 -35.265625 "/></g></g></g><g fill="#0d6efd" fill-opacity="1"><g transform="translate(83.480439, 67.988333)"><g><path d="M 10.546875 -14.421875 L 14.53125 -14.421875 L 14.5625 -6.515625 C 14.570312 -5.191406 14.300781 -4.019531 13.75 -3 C 13.195312 -1.988281 12.414062 -1.195312 11.40625 -0.625 C 10.40625 -0.0625 9.242188 0.21875 7.921875 0.21875 C 5.753906 0.21875 4.082031 -0.320312 2.90625 -1.40625 C 1.738281 -2.488281 1.15625 -4.09375 1.15625 -6.21875 L 1.15625 -14.421875 L 5.21875 -14.421875 L 5.21875 -6.421875 C 5.21875 -5.328125 5.472656 -4.539062 5.984375 -4.0625 C 6.492188 -3.59375 7.144531 -3.359375 7.9375 -3.359375 C 8.78125 -3.359375 9.4375 -3.613281 9.90625 -4.125 C 10.375 -4.632812 10.597656 -5.476562 10.578125 -6.65625 Z M 10.546875 -14.421875 "/></g></g></g><g fill="#0d6efd" fill-opacity="1"><g transform="translate(99.204256, 67.988333)"><g><path d="M 13.0625 -14.421875 L 12.46875 -10.890625 L 8.25 -10.890625 L 8.25 0 L 4.1875 0 L 4.1875 -10.890625 L -0.328125 -10.890625 L -0.328125 -14.421875 Z M 13.0625 -14.421875 "/></g></g></g><g fill="#0d6efd" fill-opacity="1"><g transform="translate(111.616722, 67.988333)"><g><path d="M 1.21875 0 L 1.21875 -14.421875 L 5.28125 -14.421875 L 5.28125 0 Z M 1.21875 0 "/></g></g></g><g fill="#0d6efd" fill-opacity="1"><g transform="translate(118.117523, 67.988333)"><g><path d="M 1.21875 0 L 1.21875 -14.421875 L 5.28125 -14.421875 L 5.28125 -3.53125 L 11.296875 -3.53125 L 11.046875 0 Z M 1.21875 0 "/></g></g></g><g fill="#0d6efd" fill-opacity="1"><g transform="translate(129.331406, 67.988333)"><g><path d="M 6.078125 0.203125 C 4.265625 0.203125 2.847656 -0.179688 1.828125 -0.953125 C 0.816406 -1.722656 0.242188 -2.847656 0.109375 -4.328125 L 3.859375 -4.875 C 3.890625 -4.363281 4.117188 -3.945312 4.546875 -3.625 C 4.972656 -3.3125 5.523438 -3.15625 6.203125 -3.15625 C 7.441406 -3.15625 8.0625 -3.476562 8.0625 -4.125 C 8.0625 -4.425781 7.890625 -4.664062 7.546875 -4.84375 C 7.203125 -5.03125 6.632812 -5.21875 5.84375 -5.40625 C 4.164062 -5.8125 2.929688 -6.351562 2.140625 -7.03125 C 1.359375 -7.707031 0.976562 -8.660156 1 -9.890625 C 1.007812 -10.828125 1.253906 -11.648438 1.734375 -12.359375 C 2.210938 -13.066406 2.890625 -13.617188 3.765625 -14.015625 C 4.640625 -14.421875 5.664062 -14.625 6.84375 -14.625 C 8.289062 -14.625 9.484375 -14.257812 10.421875 -13.53125 C 11.367188 -12.800781 11.910156 -11.804688 12.046875 -10.546875 L 8.484375 -9.9375 C 8.421875 -10.320312 8.21875 -10.640625 7.875 -10.890625 C 7.53125 -11.148438 7.113281 -11.28125 6.625 -11.28125 C 6.164062 -11.28125 5.796875 -11.1875 5.515625 -11 C 5.234375 -10.8125 5.09375 -10.566406 5.09375 -10.265625 C 5.09375 -9.972656 5.234375 -9.722656 5.515625 -9.515625 C 5.796875 -9.304688 6.320312 -9.109375 7.09375 -8.921875 C 8.195312 -8.648438 9.125 -8.335938 9.875 -7.984375 C 10.632812 -7.640625 11.207031 -7.195312 11.59375 -6.65625 C 11.976562 -6.113281 12.171875 -5.40625 12.171875 -4.53125 C 12.171875 -3.59375 11.914062 -2.769531 11.40625 -2.0625 C 10.894531 -1.351562 10.179688 -0.796875 9.265625 -0.390625 C 8.359375 0.00390625 7.296875 0.203125 6.078125 0.203125 Z M 6.078125 0.203125 "/></g></g></g></svg>